HIERARCHY
ROOT Hips
{
	OFFSET 0.000000 35.082581 0.000000
	CHANNELS 6 Xposition Yposition Zposition Xrotation Yrotation Zrotation 
	JOINT Spine
	{
		OFFSET 0.000000 6.876099 0.125700
		CHANNELS 3 Xrotation Yrotation Zrotation
		JOINT Spine1
		{
			OFFSET 0.000000 5.730043 0.104720
			CHANNELS 3 Xrotation Yrotation Zrotation
			JOINT Spine1_split
			{
				OFFSET 0.000000 5.730043 0.104720
				CHANNELS 3 Xrotation Yrotation Zrotation
				JOINT Spine2
				{
					OFFSET 0.000000 5.730043 0.104720
					CHANNELS 3 Xrotation Yrotation Zrotation
					JOINT Neck
					{
						OFFSET 0.000000 10.314075 0.188496
						CHANNELS 3 Xrotation Yrotation Zrotation
						JOINT Head
						{
							OFFSET 0.000000 7.643700 -2.377400
							CHANNELS 3 Xrotation Yrotation Zrotation
							JOINT HeadTop_End
							{
								OFFSET 0.000000 43.788605 -13.619600
								CHANNELS 3 Xrotation Yrotation Zrotation
								End Site
								{
									OFFSET 0.000000 0.000000 0.000000
								}
							}
						}
					}
					JOINT LeftShoulder
					{
						OFFSET 2.196100 4.412489 0.087492
						CHANNELS 3 Xrotation Yrotation Zrotation
						JOINT LeftShoulder_split
						{
							OFFSET 2.196100 4.412489 0.087492
							CHANNELS 3 Xrotation Yrotation Zrotation
							JOINT LeftArm
							{
								OFFSET 8.771219 -2.981674 -0.026999
								CHANNELS 3 Xrotation Yrotation Zrotation
								JOINT LeftForeArm
								{
									OFFSET 8.512804 0.000000 -0.000000
									CHANNELS 3 Xrotation Yrotation Zrotation
									JOINT LeftHand
									{
										OFFSET 18.484802 0.000000 -0.000000
										CHANNELS 3 Xrotation Yrotation Zrotation
										JOINT LeftHandThumb1
										{
											OFFSET 2.499420 -1.158070 2.653252
											CHANNELS 3 Xrotation Yrotation Zrotation
											JOINT LeftHandThumb2
											{
												OFFSET 2.370079 -1.368366 1.368366
												CHANNELS 3 Xrotation Yrotation Zrotation
												JOINT LeftHandThumb3
												{
													OFFSET 2.676727 -1.545410 1.545409
													CHANNELS 3 Xrotation Yrotation Zrotation
													JOINT LeftHandThumb4
													{
														OFFSET 1.692226 -0.977005 0.977007
														CHANNELS 3 Xrotation Yrotation Zrotation
														End Site
														{
															OFFSET 0.000000 0.000000 0.000000
														}
													}
												}
											}
										}
										JOINT LeftHandIndex1
										{
											OFFSET 7.924831 -0.457527 2.345128
											CHANNELS 3 Xrotation Yrotation Zrotation
											JOINT LeftHandIndex2
											{
												OFFSET 3.643303 0.000000 0.000000
												CHANNELS 3 Xrotation Yrotation Zrotation
												JOINT LeftHandIndex3
												{
													OFFSET 3.810799 0.000000 0.000000
													CHANNELS 3 Xrotation Yrotation Zrotation
													JOINT LeftHandIndex4
													{
														OFFSET 2.403702 0.000000 0.000000
														CHANNELS 3 Xrotation Yrotation Zrotation
														End Site
														{
															OFFSET 0.000000 0.000000 0.000000
														}
													}
												}
											}
										}
										JOINT LeftHandMiddle1
										{
											OFFSET 8.563995 0.000000 -0.000000
											CHANNELS 3 Xrotation Yrotation Zrotation
											JOINT LeftHandMiddle2
											{
												OFFSET 3.861618 0.000000 0.000000
												CHANNELS 3 Xrotation Yrotation Zrotation
												JOINT LeftHandMiddle3
												{
													OFFSET 3.701603 0.000000 0.000000
													CHANNELS 3 Xrotation Yrotation Zrotation
													JOINT LeftHandMiddle4
													{
														OFFSET 2.322544 0.000000 0.000000
														CHANNELS 3 Xrotation Yrotation Zrotation
														End Site
														{
															OFFSET 0.000000 0.000000 0.000000
														}
													}
												}
											}
										}
										JOINT LeftHandRing1
										{
											OFFSET 8.426460 -0.424637 -3.286992
											CHANNELS 3 Xrotation Yrotation Zrotation
											JOINT LeftHandRing2
											{
												OFFSET 3.126408 0.000000 0.000000
												CHANNELS 3 Xrotation Yrotation Zrotation
												JOINT LeftHandRing3
												{
													OFFSET 3.085026 0.000000 0.000000
													CHANNELS 3 Xrotation Yrotation Zrotation
													JOINT LeftHandRing4
													{
														OFFSET 1.644005 0.000000 0.000000
														CHANNELS 3 Xrotation Yrotation Zrotation
														End Site
														{
															OFFSET 0.000000 0.000000 0.000000
														}
													}
												}
											}
										}
									}
								}
							}
						}
					}
					JOINT RightShoulder
					{
						OFFSET -2.196100 4.412496 0.070690
						CHANNELS 3 Xrotation Yrotation Zrotation
						JOINT RightShoulder_split
						{
							OFFSET -2.196100 4.412496 0.070690
							CHANNELS 3 Xrotation Yrotation Zrotation
							JOINT RightArm
							{
								OFFSET -8.771282 -2.981682 -0.094208
								CHANNELS 3 Xrotation Yrotation Zrotation
								JOINT RightForeArm
								{
									OFFSET -8.494598 0.000000 0.000000
									CHANNELS 3 Xrotation Yrotation Zrotation
									JOINT RightHand
									{
										OFFSET -18.483803 0.000000 0.000001
										CHANNELS 3 Xrotation Yrotation Zrotation
										JOINT RightHandThumb1
										{
											OFFSET -2.527351 -1.008072 2.575253
											CHANNELS 3 Xrotation Yrotation Zrotation
											JOINT RightHandThumb2
											{
												OFFSET -2.321518 -1.340328 1.340329
												CHANNELS 3 Xrotation Yrotation Zrotation
												JOINT RightHandThumb3
												{
													OFFSET -2.657753 -1.534454 1.534455
													CHANNELS 3 Xrotation Yrotation Zrotation
													JOINT RightHandThumb4
													{
														OFFSET -1.807510 -1.043568 1.043567
														CHANNELS 3 Xrotation Yrotation Zrotation
														End Site
														{
															OFFSET 0.000000 0.000000 0.000000
														}
													}
												}
											}
										}
										JOINT RightHandIndex1
										{
											OFFSET -8.811420 0.015533 2.887987
											CHANNELS 3 Xrotation Yrotation Zrotation
											JOINT RightHandIndex2
											{
												OFFSET -3.537502 0.000000 0.000000
												CHANNELS 3 Xrotation Yrotation Zrotation
												JOINT RightHandIndex3
												{
													OFFSET -3.356201 0.000000 0.000000
													CHANNELS 3 Xrotation Yrotation Zrotation
													JOINT RightHandIndex4
													{
														OFFSET -1.933098 0.000000 0.000000
														CHANNELS 3 Xrotation Yrotation Zrotation
														End Site
														{
															OFFSET 0.000000 0.000000 0.000000
														}
													}
												}
											}
										}
										JOINT RightHandMiddle1
										{
											OFFSET -8.178135 0.000000 0.000000
											CHANNELS 3 Xrotation Yrotation Zrotation
											JOINT RightHandMiddle2
											{
												OFFSET -3.901302 0.000000 0.000000
												CHANNELS 3 Xrotation Yrotation Zrotation
												JOINT RightHandMiddle3
												{
													OFFSET -3.909599 0.000000 0.000000
													CHANNELS 3 Xrotation Yrotation Zrotation
													JOINT RightHandMiddle4
													{
														OFFSET -2.376003 0.000000 0.000000
														CHANNELS 3 Xrotation Yrotation Zrotation
														End Site
														{
															OFFSET 0.000000 0.000000 0.000000
														}
													}
												}
											}
										}
										JOINT RightHandRing1
										{
											OFFSET -7.559013 0.014137 -2.865403
											CHANNELS 3 Xrotation Yrotation Zrotation
											JOINT RightHandRing2
											{
												OFFSET -3.449306 0.000000 0.000000
												CHANNELS 3 Xrotation Yrotation Zrotation
												JOINT RightHandRing3
												{
													OFFSET -3.362106 0.000000 0.000000
													CHANNELS 3 Xrotation Yrotation Zrotation
													JOINT RightHandRing4
													{
														OFFSET -2.076401 0.000000 0.000000
														CHANNELS 3 Xrotation Yrotation Zrotation
														End Site
														{
															OFFSET 0.000000 0.000000 0.000000
														}
													}
												}
											}
										}
									}
								}
							}
						}
					}
				}
			}
		}
	}
	JOINT LeftUpLeg
	{
		OFFSET 10.205400 -3.823500 0.155100
		CHANNELS 3 Xrotation Yrotation Zrotation
		JOINT LeftLeg
		{
			OFFSET 0.708757 -12.982077 0.567790
			CHANNELS 3 Xrotation Yrotation Zrotation
			JOINT LeftFoot
			{
				OFFSET -0.708756 -10.717838 -2.184338
				CHANNELS 3 Xrotation Yrotation Zrotation
				JOINT LeftToeBase
				{
					OFFSET 0.108149 -7.191104 7.560241
					CHANNELS 3 Xrotation Yrotation Zrotation
					JOINT LeftToe_End
					{
						OFFSET 0.070230 0.081724 4.490308
						CHANNELS 3 Xrotation Yrotation Zrotation
						End Site
						{
							OFFSET 0.000000 0.000000 0.000000
						}
					}
				}
			}
		}
	}
	JOINT RightUpLeg
	{
		OFFSET -10.205400 -3.823500 0.005500
		CHANNELS 3 Xrotation Yrotation Zrotation
		JOINT RightLeg
		{
			OFFSET -0.708756 -12.982134 0.610632
			CHANNELS 3 Xrotation Yrotation Zrotation
			JOINT RightFoot
			{
				OFFSET 0.708754 -10.717769 -1.945823
				CHANNELS 3 Xrotation Yrotation Zrotation
				JOINT RightToeBase
				{
					OFFSET -0.108140 -7.191069 7.372968
					CHANNELS 3 Xrotation Yrotation Zrotation
					JOINT RightToe_End
					{
						OFFSET -0.070227 0.081735 4.479403
						CHANNELS 3 Xrotation Yrotation Zrotation
						End Site
						{
							OFFSET 0.000000 0.000000 0.000000
						}
					}
				}
			}
		}
	}
}
MOTION
Frames: 6
Frame Time: 0.016667
0.644649 34.073326 -0.612940 -4.058088 6.132815 -1.651832 4.903730 -0.329114 1.106611 5.814412 -0.121264 1.891506 0.000000 0.000000 0.000000 -4.300227 -0.608023 -1.115062 1.349176 -1.122404 0.966674 4.180454 -0.441328 -1.260371 0.000000 -0.000000 0.000000 1.687478 -7.781259 -3.494977 0.000000 0.000000 0.000000 -0.672291 -2.004149 -76.954170 6.346018 -10.905146 1.751707 -0.215846 -0.744260 3.407789 -3.779752 8.457875 12.348772 7.439536 11.617318 -1.292646 1.145882 8.839772 5.191161 -0.000003 -0.000002 -0.000004 2.384573 3.620165 -6.815690 -0.007829 0.227206 -17.103489 0.032048 0.161730 -12.954584 0.000001 0.000000 0.000002 -1.935778 5.644686 -11.387003 0.112446 0.632671 -24.767750 0.028389 0.020380 -9.474980 -0.000001 -0.000000 -0.000003 -4.873153 10.020110 -7.875457 -0.031552 0.293307 -30.086211 0.075503 0.690898 -12.602724 -0.000001 0.000000 0.000007 2.069743 10.208002 4.096263 0.000000 0.000000 0.000000 1.439769 3.704608 75.273930 15.720234 15.338359 -4.555494 -4.669810 -0.553088 -0.689260 -0.464232 -8.992527 -6.084841 7.444303 -11.614498 1.291700 1.121891 -8.850193 -5.182520 0.000002 -0.000002 -0.000002 2.415145 -3.647883 8.343611 -0.045917 -0.188510 18.630258 -0.057299 -0.137365 14.481613 0.000001 -0.000000 -0.000002 -1.985498 -5.700679 13.541339 0.094745 -0.637364 26.924140 -0.057973 -0.061589 11.632776 0.000000 0.000000 0.000003 -4.982050 -10.062149 10.706139 -0.023911 -0.331170 32.937392 0.106071 -0.688828 15.454575 0.000000 -0.000001 -0.000000 -7.807114 9.282756 13.905361 22.426597 -7.835985 -1.111217 -11.885812 1.707202 -7.028488 -0.000088 0.013850 -0.000001 0.000000 0.000000 0.000000 -5.028034 -5.586187 -0.869414 16.540169 3.891295 0.050355 -7.422343 -0.459682 1.500943 0.000018 0.000000 0.000001 0.000000 -0.000000 -0.000000 
0.688119 34.071640 -0.592558 -4.002462 6.013043 -1.664639 4.886344 -0.307061 1.065463 5.821197 -0.106784 1.917306 0.000000 0.000000 0.000000 -4.288224 -0.596360 -1.086638 1.375390 -1.125631 0.914276 4.107037 -0.471392 -1.182772 0.000000 -0.000000 0.000000 1.710090 -7.716857 -3.464117 0.000000 0.000000 0.000000 -0.640209 -1.994678 -77.013197 6.401014 -10.925493 1.756960 -0.211693 -0.779961 3.402867 -3.770355 8.494613 12.357331 7.410610 11.555752 -1.302263 1.156694 8.872095 5.197119 -0.000000 -0.000001 -0.000002 2.365549 3.558901 -6.752267 -0.007885 0.227185 -17.059728 0.031911 0.161706 -12.913592 0.000000 0.000000 0.000001 -1.944316 5.590016 -11.373861 0.112409 0.632619 -24.756934 0.028388 0.020308 -9.464933 0.000002 0.000000 0.000002 -4.875018 9.973651 -7.908304 -0.031565 0.293452 -30.105234 0.075674 0.691003 -12.622492 -0.000000 -0.000000 -0.000001 2.108048 10.186220 3.925897 0.000000 0.000000 0.000000 1.704446 4.137072 75.329405 15.726318 16.016515 -5.167405 -4.943595 -0.670165 -0.596687 -0.464263 -8.992507 -6.084823 7.444340 -11.614554 1.291605 1.121854 -8.850212 -5.182500 0.000003 -0.000002 -0.000000 2.415107 -3.647885 8.343642 -0.045912 -0.188501 18.630265 -0.057321 -0.137333 14.481647 -0.000001 0.000000 0.000000 -1.985554 -5.700726 13.541264 0.094759 -0.637342 26.924223 -0.057961 -0.061577 11.632774 -0.000001 0.000002 0.000005 -4.982040 -10.062126 10.706145 -0.023999 -0.331209 32.937351 0.106061 -0.688837 15.454599 -0.000001 0.000001 0.000001 -7.736396 9.270121 13.802220 22.497627 -7.720501 -1.115617 -12.050719 1.758516 -6.952316 0.000021 0.013855 0.000002 0.000000 0.000000 0.000000 -5.086765 -5.592016 -0.961288 16.552714 3.912515 0.049251 -7.437450 -0.405158 1.586532 -0.002776 0.122566 -0.003328 0.000000 -0.000000 -0.000000 
0.735552 34.069347 -0.565620 -4.000101 5.907310 -1.649911 4.953555 -0.293707 0.997710 5.780769 -0.096300 1.938784 0.000000 0.000000 0.000000 -4.313798 -0.587795 -1.059324 1.415382 -1.142937 0.891898 4.072206 -0.494247 -1.181361 -0.000001 0.000000 0.000000 1.725170 -7.668270 -3.419682 0.000000 0.000000 0.000000 -0.663471 -1.883001 -77.088971 6.401439 -10.863921 1.697835 -0.197298 -0.886261 3.455038 -3.774911 8.496024 12.356097 7.405243 11.551460 -1.297597 1.159408 8.871932 5.192145 -0.000005 -0.000004 -0.000002 2.390008 3.891190 -6.747930 -0.007880 0.227173 -17.044182 0.031767 0.161708 -12.895544 0.000000 -0.000000 -0.000000 -1.920716 5.826083 -11.342085 0.112323 0.632565 -24.738950 0.028323 0.020210 -9.444799 0.000000 0.000001 0.000001 -4.854195 10.148921 -7.869567 -0.031537 0.293381 -30.088073 0.075523 0.690888 -12.602858 -0.000000 -0.000000 -0.000003 2.143781 10.163307 3.767664 0.000000 0.000000 0.000000 1.868293 4.550502 75.382052 15.821529 16.571746 -5.763660 -5.230315 -0.788510 -0.468309 -0.464265 -8.992485 -6.084814 7.444319 -11.614524 1.291597 1.121858 -8.850199 -5.182492 0.000000 0.000002 -0.000000 2.415126 -3.647876 8.343606 -0.045885 -0.188530 18.630227 -0.057325 -0.137325 14.481594 0.000000 -0.000000 -0.000001 -1.985487 -5.700721 13.541301 0.094769 -0.637315 26.924204 -0.057991 -0.061534 11.632789 -0.000002 -0.000000 -0.000000 -4.982025 -10.062153 10.706091 -0.023969 -0.331199 32.937436 0.106078 -0.688844 15.454570 -0.000001 -0.000002 0.000001 -7.580133 9.320810 13.672243 22.515010 -7.645793 -1.119205 -12.204023 1.786819 -6.860026 0.000035 0.013843 0.000006 0.000000 0.000000 0.000000 -5.109492 -5.628085 -1.074559 16.636847 4.039838 0.031079 -7.510154 -0.400616 1.665129 -0.000154 0.176725 0.000003 0.000000 0.000000 -0.000000 
0.789113 34.066944 -0.539315 -3.913214 5.808687 -1.660893 4.912866 -0.283930 0.995074 5.773952 -0.091454 1.936356 0.000000 0.000000 0.000000 -4.297130 -0.582285 -1.054468 1.394790 -1.143806 0.871364 4.049759 -0.507420 -1.134739 -0.000000 -0.000000 0.000000 1.736350 -7.615519 -3.398566 0.000000 0.000000 0.000000 -0.683198 -1.787362 -77.118532 6.429680 -10.835450 1.658452 -0.182051 -0.982548 3.540805 -3.774031 8.519668 12.359898 7.396403 11.544282 -1.289713 1.142216 8.806193 5.170892 -0.000003 0.000000 0.000001 2.376646 3.922608 -6.679044 -0.007973 0.227121 -16.995707 0.031673 0.161698 -12.847586 0.000001 0.000000 -0.000001 -1.916479 5.871974 -11.333400 0.112287 0.632537 -24.733640 0.028276 0.020179 -9.438999 -0.000001 0.000000 -0.000004 -4.835778 10.220185 -7.914593 -0.031539 0.293558 -30.121766 0.075833 0.691043 -12.635487 -0.000001 0.000000 -0.000001 2.177297 10.135602 3.620672 0.000000 0.000000 0.000000 1.959050 4.933518 75.428935 15.740924 17.064220 -6.286253 -5.433548 -0.728889 -0.390472 -0.464228 -8.992521 -6.084873 7.444309 -11.614516 1.291608 1.121862 -8.850189 -5.182489 -0.000002 -0.000006 -0.000001 2.415391 -3.653176 8.343838 -0.045929 -0.188520 18.630227 -0.057338 -0.137326 14.481625 0.000003 0.000001 -0.000002 -1.985528 -5.700709 13.541233 0.094809 -0.637344 26.924259 -0.057956 -0.061557 11.632783 0.000001 -0.000001 0.000001 -4.982041 -10.062147 10.706145 -0.023982 -0.331160 32.937365 0.106078 -0.688841 15.454560 -0.000001 -0.000002 -0.000002 -7.537485 9.265312 13.527535 22.613580 -7.492852 -1.109693 -12.390457 1.829853 -6.774263 -0.000048 0.013845 -0.000003 0.000000 0.000000 0.000000 -5.184872 -5.649363 -1.193316 16.659675 4.096121 0.029492 -7.551642 -0.389043 1.767127 -0.000061 0.275667 0.000001 0.000000 -0.000000 0.000000 
0.845998 34.063816 -0.508715 -3.832135 5.719499 -1.685895 4.884523 -0.270324 0.984813 5.773496 -0.086206 1.957465 0.000000 0.000000 0.000000 -4.264753 -0.578404 -1.023406 1.240539 -1.139638 0.779122 4.059605 -0.539381 -1.054021 -0.000001 -0.000000 0.000000 1.728870 -7.543039 -3.464678 0.000000 0.000000 0.000000 -0.761516 -1.733393 -77.093137 6.407572 -10.788645 1.590160 -0.166703 -1.071413 3.629995 -3.797243 8.485687 12.339893 7.398214 11.564320 -1.274041 1.164584 8.855260 5.169185 -0.000004 0.000002 -0.000004 2.349893 4.078850 -6.511399 -0.008106 0.227035 -16.875015 0.031208 0.161603 -12.727422 0.000000 -0.000000 0.000000 -1.919096 6.011997 -11.207563 0.111871 0.632210 -24.650272 0.027964 0.019718 -9.355544 -0.000001 -0.000000 -0.000003 -4.826360 10.366908 -7.816181 -0.031583 0.293182 -30.063358 0.075251 0.690739 -12.575572 -0.000000 -0.000000 0.000001 2.218214 10.107017 3.436456 0.000000 0.000000 0.000000 1.946284 5.292004 75.488876 15.732359 17.509216 -6.845781 -5.618948 -0.764926 -0.182864 -0.464217 -8.992510 -6.084808 7.444284 -11.614533 1.291655 1.121901 -8.850198 -5.182488 0.000001 -0.000000 0.000001 2.415657 -3.659378 8.348988 -0.045892 -0.188523 18.630229 -0.057302 -0.137317 14.481613 0.000000 -0.000001 0.000000 -1.985480 -5.700725 13.541331 0.094763 -0.637331 26.924264 -0.057930 -0.061534 11.632780 -0.000003 0.000001 -0.000002 -4.982022 -10.062149 10.706132 -0.023971 -0.331173 32.937392 0.106105 -0.688867 15.454575 -0.000001 -0.000002 -0.000003 -7.516139 9.250604 13.411660 22.755965 -7.380616 -1.106206 -12.607865 1.852283 -6.671671 -0.000102 0.013849 -0.000000 0.000000 0.000000 0.000000 -5.219961 -5.693811 -1.301413 16.634886 4.193727 0.027452 -7.579263 -0.397962 1.869797 0.000015 0.367957 0.000004 0.000000 -0.000000 0.000000 
0.908840 34.060356 -0.472942 -3.807964 5.585228 -1.691987 4.953591 -0.242364 0.990308 5.718726 -0.064780 1.934557 0.000000 0.000000 0.000000 -4.278896 -0.552732 -1.031066 1.201341 -1.152124 0.779611 4.014440 -0.565041 -0.967064 0.000001 -0.000000 0.000000 1.746317 -7.507057 -3.396548 0.000000 0.000000 0.000000 -0.792434 -1.661105 -77.164144 6.396796 -10.768348 1.535212 -0.138159 -1.273577 3.717145 -3.802046 8.505176 12.334807 7.368753 11.521849 -1.265382 1.177668 8.871231 5.157895 -0.000002 -0.000002 -0.000006 2.351593 4.676488 -6.329608 -0.008195 0.226889 -16.726314 0.030632 0.161586 -12.577970 0.000002 -0.000000 0.000000 -1.884019 6.498485 -11.062837 0.110783 0.631929 -24.560049 0.027629 0.019251 -9.261083 -0.000000 0.000000 0.000000 -4.758866 10.810127 -7.743175 -0.031557 0.292965 -30.035501 0.074957 0.690652 -12.542370 -0.000000 0.000000 -0.000001 2.243949 10.085138 3.326684 0.000000 0.000000 0.000000 1.936970 5.597692 75.529366 15.555314 17.920637 -7.363478 -5.719843 -0.784461 -0.013863 -0.464209 -8.992500 -6.084831 7.444278 -11.614509 1.291644 1.121842 -8.850201 -5.182521 -0.000001 -0.000004 -0.000002 2.415996 -3.667198 8.355510 -0.045894 -0.188486 18.634499 -0.057314 -0.137319 14.485865 -0.000001 -0.000000 0.000001 -1.985533 -5.700743 13.546219 0.094774 -0.637329 26.924206 -0.057956 -0.061590 11.632805 -0.000001 -0.000001 -0.000002 -4.982040 -10.062150 10.710502 -0.023965 -0.331207 32.937395 0.106084 -0.688824 15.454587 0.000002 0.000001 -0.000000 -7.359450 9.273092 13.264775 22.836092 -7.275442 -1.114496 -12.838289 1.908268 -6.549278 -0.000089 0.013844 0.000000 -0.000000 0.000002 0.000000 -5.210522 -5.760766 -1.441512 16.656991 4.291801 0.031056 -7.644376 -0.379224 1.974834 -0.000073 0.506302 0.000003 0.000000 -0.000000 -0.000000 
